<?xml version="1.0" encoding="utf-8"?>
<!-- Generator: Adobe Illustrator 16.0.0, SVG Export Plug-In . SVG Version: 6.00 Build 0)  -->
<!DOCTYPE svg PUBLIC "-//W3C//DTD SVG 1.1//EN" "http://www.w3.org/Graphics/SVG/1.1/DTD/svg11.dtd">
<svg version="1.1" id="Vrstva_1" xmlns="http://www.w3.org/2000/svg" xmlns:xlink="http://www.w3.org/1999/xlink" x="0px" y="0px"
	 width="48px" height="34px" viewBox="0 0 48 34" enable-background="new 0 0 48 34" xml:space="preserve">
<path fill="#273169" d="M25.631,33.932H9.978c-0.746,0-1.352-0.609-1.352-1.352V1.352C8.625,0.606,9.232,0,9.978,0h15.653
	c9.372,0,16.967,7.595,16.967,16.966S35.003,33.932,25.631,33.932z M11.326,31.229h14.305c7.874,0,14.263-6.389,14.263-14.263
	c0-7.876-6.389-14.265-14.263-14.265H11.326V31.229z"/>
<path fill="#273169" d="M25.419,25.065H24.73c-3.277,0-9.471-3.274-14.789-6.506c-4.301,2.688-7.764,5.141-7.81,5.166
	c-0.606,0.431-1.452,0.286-1.882-0.317C0.086,23.176,0,22.904,0,22.625V11.31c0-0.746,0.603-1.349,1.349-1.349
	c0.281,0,0.553,0.086,0.782,0.249c1.743,1.233,4.622,3.181,7.807,5.163c5.319-3.234,11.516-6.508,14.792-6.508h0.689
	c4.481,0,8.105,3.625,8.105,8.102C33.524,21.446,29.9,25.065,25.419,25.065z M12.556,16.966c4.825,2.87,9.789,5.401,12.174,5.401
	h0.689c2.982,0,5.408-2.419,5.408-5.401c0-2.982-2.426-5.401-5.408-5.401H24.73c-1.176,0-4.305,0.719-12.174,5.405V16.966z
	 M2.701,13.888v6.157c1.219-0.829,2.843-1.916,4.676-3.079C5.543,15.803,3.92,14.716,2.701,13.888z"/>
</svg>
