<?xml version="1.0" encoding="utf-8"?>
<!-- Generator: Adobe Illustrator 16.0.0, SVG Export Plug-In . SVG Version: 6.00 Build 0)  -->
<!DOCTYPE svg PUBLIC "-//W3C//DTD SVG 1.1//EN" "http://www.w3.org/Graphics/SVG/1.1/DTD/svg11.dtd">
<svg version="1.1" id="Vrstva_1" xmlns="http://www.w3.org/2000/svg" xmlns:xlink="http://www.w3.org/1999/xlink" x="0px" y="0px"
	 width="25.669px" height="8.5px" viewBox="0 0 25.669 8.5" enable-background="new 0 0 25.669 8.5" xml:space="preserve">
<g>
	<path fill="none" stroke="#CBAD91" stroke-width="1.5" stroke-linecap="round" stroke-miterlimit="10" d="M4.75,0.75
		c0,0,0.876,1,2.5,1c1.625,0,2.501-1,2.501-1"/>
	<path fill="none" stroke="#CBAD91" stroke-width="1.5" stroke-linecap="round" stroke-miterlimit="10" d="M9.751,0.75
		c0,0,0.876,1,2.5,1c1.625,0,2.501-1,2.501-1"/>
	<path fill="none" stroke="#CBAD91" stroke-width="1.5" stroke-linecap="round" stroke-miterlimit="10" d="M14.917,0.75
		c0,0,0.876,1,2.501,1c1.624,0,2.5-1,2.5-1"/>
	<path fill="none" stroke="#CBAD91" stroke-width="1.5" stroke-linecap="round" stroke-miterlimit="10" d="M0.75,6.75
		c0,0,0.876,1,2.5,1c1.625,0,2.501-1,2.501-1"/>
	<path fill="none" stroke="#CBAD91" stroke-width="1.5" stroke-linecap="round" stroke-miterlimit="10" d="M5.75,6.75
		c0,0,0.876,1,2.5,1c1.625,0,2.501-1,2.501-1"/>
	<path fill="none" stroke="#CBAD91" stroke-width="1.5" stroke-linecap="round" stroke-miterlimit="10" d="M10.917,6.75
		c0,0,0.876,1,2.5,1c1.625,0,2.501-1,2.501-1"/>
	<path fill="none" stroke="#CBAD91" stroke-width="1.5" stroke-linecap="round" stroke-miterlimit="10" d="M19.917,0.75
		c0,0,0.876,1,2.501,1c1.624,0,2.5-1,2.5-1"/>
	<path fill="none" stroke="#CBAD91" stroke-width="1.5" stroke-linecap="round" stroke-miterlimit="10" d="M15.917,6.75
		c0,0,0.876,1,2.5,1c1.625,0,2.501-1,2.501-1"/>
</g>
</svg>
