<?xml version="1.0" encoding="utf-8"?>
<!-- Generator: Adobe Illustrator 16.0.0, SVG Export Plug-In . SVG Version: 6.00 Build 0)  -->
<!DOCTYPE svg PUBLIC "-//W3C//DTD SVG 1.1//EN" "http://www.w3.org/Graphics/SVG/1.1/DTD/svg11.dtd">
<svg version="1.1" id="Vrstva_1" xmlns="http://www.w3.org/2000/svg" xmlns:xlink="http://www.w3.org/1999/xlink" x="0px" y="0px"
	 width="18.99px" height="18.99px" viewBox="-5.478 17.016 18.99 18.99" enable-background="new -5.478 17.016 18.99 18.99"
	 xml:space="preserve">
<title>Cross_CheckBox</title>
<path fill="#142374" d="M6.124,26.473l6.905-6.907c0.571-0.613,0.539-1.573-0.074-2.144c-0.582-0.542-1.485-0.542-2.068,0
	L3.98,24.329l-6.906-6.906c-0.613-0.571-1.573-0.536-2.145,0.077c-0.542,0.582-0.542,1.485,0,2.067l6.908,6.907l-6.908,6.906
	c-0.571,0.613-0.536,1.574,0.077,2.145c0.582,0.543,1.485,0.543,2.068,0l6.906-6.904l6.907,6.904
	c0.571,0.613,1.53,0.646,2.143,0.074c0.613-0.57,0.648-1.529,0.077-2.143c-0.025-0.025-0.049-0.051-0.077-0.076L6.124,26.473z"/>
</svg>
