<?xml version="1.0" encoding="utf-8"?>
<!-- Generator: Adobe Illustrator 16.0.0, SVG Export Plug-In . SVG Version: 6.00 Build 0)  -->
<!DOCTYPE svg PUBLIC "-//W3C//DTD SVG 1.1//EN" "http://www.w3.org/Graphics/SVG/1.1/DTD/svg11.dtd">
<svg version="1.1" id="Layer_1" xmlns="http://www.w3.org/2000/svg" xmlns:xlink="http://www.w3.org/1999/xlink" x="0px" y="0px"
	 width="33.929px" height="33.87px" viewBox="7.03 0.13 33.929 33.87" enable-background="new 7.03 0.13 33.929 33.87"
	 xml:space="preserve">
<title>LinkedIn_#343e80</title>
<path fill="#142374" d="M38.459,0.131H9.548C8.182,0.106,7.054,1.195,7.03,2.562c0,0.004,0,0.008,0,0.012v28.982
	c0.017,1.367,1.14,2.461,2.506,2.443h0h28.911c1.367,0.016,2.489-1.076,2.512-2.443V2.574C40.939,1.211,39.822,0.12,38.459,0.131z
	 M17.097,28.99h-5.034V12.828h5.034V28.99z M14.578,10.618c-1.607-0.004-2.907-1.311-2.903-2.918
	c0.004-1.608,1.311-2.908,2.919-2.903c1.603,0.004,2.9,1.304,2.903,2.907c0,1.61-1.305,2.915-2.915,2.915
	C14.581,10.618,14.58,10.618,14.578,10.618z M35.94,28.99h-5.021v-7.857c0-1.873-0.036-4.285-2.618-4.285s-3.018,2.039-3.018,4.143
	v8h-5.03V12.828h4.828v2.222h0.067c0.674-1.271,2.313-2.61,4.752-2.61c5.109-0.012,6.04,3.335,6.04,7.688V28.99z"/>
</svg>
