<?xml version="1.0" encoding="utf-8"?>
<!-- Generator: Adobe Illustrator 16.0.0, SVG Export Plug-In . SVG Version: 6.00 Build 0)  -->
<!DOCTYPE svg PUBLIC "-//W3C//DTD SVG 1.1//EN" "http://www.w3.org/Graphics/SVG/1.1/DTD/svg11.dtd">
<svg version="1.1" id="Layer_1" xmlns="http://www.w3.org/2000/svg" xmlns:xlink="http://www.w3.org/1999/xlink" x="0px" y="0px"
	 width="33.861px" height="33.822px" viewBox="7.03 0 33.861 33.822" enable-background="new 7.03 0 33.861 33.822"
	 xml:space="preserve">
<title>Instac_#343e80</title>
<path fill="#142374" d="M31.465,0h-14.97C11.281-0.004,7.047,4.212,7.03,9.426v14.971c0.013,5.199,4.226,9.412,9.426,9.426h15.009
	c5.201-0.014,9.413-4.227,9.426-9.426V9.426C40.878,4.226,36.666,0.013,31.465,0z M38.119,24.396
	c-0.009,3.67-2.982,6.645-6.654,6.652h-14.97c-3.671-0.008-6.645-2.982-6.653-6.652V9.426c0.008-3.671,2.982-6.645,6.653-6.653
	h14.97c3.672,0.008,6.646,2.982,6.654,6.653V24.396z"/>
<path fill="#142374" d="M23.98,8.158c-4.833,0-8.752,3.919-8.752,8.752s3.919,8.753,8.752,8.753c4.834,0,8.752-3.92,8.752-8.753
	C32.717,12.083,28.808,8.174,23.98,8.158z M23.98,22.891c-3.303,0-5.98-2.677-5.98-5.98c0-3.303,2.677-5.98,5.98-5.98
	c3.303,0,5.981,2.677,5.981,5.98C29.949,20.209,27.278,22.881,23.98,22.891z"/>
<circle fill="#142374" cx="32.971" cy="8" r="2.257"/>
</svg>
