<?xml version="1.0" encoding="utf-8"?>
<!-- Generator: Adobe Illustrator 16.0.0, SVG Export Plug-In . SVG Version: 6.00 Build 0)  -->
<!DOCTYPE svg PUBLIC "-//W3C//DTD SVG 1.1//EN" "http://www.w3.org/Graphics/SVG/1.1/DTD/svg11.dtd">
<svg version="1.1" id="Vrstva_1" xmlns="http://www.w3.org/2000/svg" xmlns:xlink="http://www.w3.org/1999/xlink" x="0px" y="0px"
	 width="47.986px" height="20.004px" viewBox="0.01 6.998 47.986 20.004" enable-background="new 0.01 6.998 47.986 20.004"
	 xml:space="preserve">
<title>Shop_kapr</title>
<path fill="#142374" d="M44.855,17.583c0.647-1.008,3.008-4.807,2.695-6.223c-0.042-0.226-0.176-0.424-0.369-0.547
	c-0.736-0.458-2.105,0.395-4.457,1.941c-1.957,1.287-4.176,2.745-5.768,2.955c-0.605,0.079-1.516-0.029-2.613-0.263l1.4-0.705
	c0.162-0.082,0.228-0.28,0.146-0.442c-0.007-0.013-0.014-0.025-0.022-0.037c-0.041-0.061-1.052-1.516-4.338-2.847
	c-1.458-0.557-2.959-0.993-4.489-1.303c-1.224-0.263-2.278-0.526-2.631-0.86c-0.23-0.256-0.391-0.568-0.466-0.905
	c-0.152-0.482-0.324-1.032-1.147-1.316c-1.239-0.41-4.468,3.031-5.589,4.281c-3.03-0.054-6.018,0.715-8.646,2.223
	c-1.35,0.734-3.268,2.368-3.523,2.576c-0.137,0.077-0.771,0.424-1.336,0.666c-0.478,0.224-0.913,0.53-1.287,0.902
	c-0.526,0.264-1.974,1.003-2.247,1.511c-0.305,0.702-0.164,1.519,0.358,2.079c0.379,0.379,5.959,1.46,11.203,2.063
	c0.325,0.434,0.676,0.847,1.053,1.236c0.9,0.902,2.123,1.643,2.979,1.643c0.201,0.006,0.399-0.046,0.571-0.15
	c0.416-0.264,0.526-0.966,0.526-1.355c0.015-0.308-0.004-0.617-0.055-0.92c1.145,0.063,2.226,0.097,3.236,0.1
	C20.896,24.719,23.267,27,24.228,27c0.329,0.02,0.647-0.119,0.854-0.374c0.338-0.432,0.264-1.1,0.143-1.579
	c-0.199-0.504-0.475-0.977-0.818-1.396l0.126-0.014c1.717-0.209,3.422-0.507,5.109-0.892c0.676,0.792,1.462,1.483,2.334,2.052
	c1.008,0.616,2.494,1.105,3.507,1.105c0.251,0.01,0.5-0.034,0.731-0.129c0.284-0.166,0.469-0.461,0.492-0.789
	c0.18-1.016-0.216-2.949-0.879-3.613c-0.182-0.176-0.392-0.32-0.621-0.428c1.297-0.088,2.971-0.056,3.876,0.139
	c0.397,0.087,1.354,0.526,2.368,1c2.439,1.129,4.37,1.971,5.494,1.971c0.296,0.025,0.59-0.069,0.815-0.264
	C48.828,22.709,45.99,18.98,44.855,17.583z M22.573,7.661c0.508,0.174,0.592,0.439,0.731,0.884c0.107,0.443,0.328,0.851,0.639,1.184
	c0.481,0.481,1.516,0.715,2.947,1.037c1.494,0.302,2.961,0.727,4.386,1.271c2.221,0.9,3.337,1.842,3.789,2.315l-1.742,0.876
	c-1.694-0.405-3.684-1-5.654-1.579c-3.557-1.053-7.235-2.158-9.569-2.3h-0.037C19.92,9.342,22.049,7.484,22.573,7.661z M24.586,25.2
	c0.115,0.463,0.107,0.853-0.021,1.019c-0.023,0.028-0.095,0.121-0.334,0.121c-0.432,0-1.911-1.197-3.242-2.471
	c0.952-0.016,1.842-0.063,2.655-0.141C24.004,24.192,24.51,24.895,24.586,25.2z M36.07,24.797c-0.045,0.313-0.131,0.374-0.131,0.374
	c-0.527,0.242-2.324-0.152-3.619-0.942c-0.723-0.469-1.381-1.032-1.957-1.673c1.029-0.242,2.016-0.639,2.926-1.177
	c0.116-0.068,0.213-0.123,0.309-0.173c0.395,0.016,1.294,0.142,1.766,0.612c0.471,0.472,0.834,2.087,0.705,2.979H36.07z
	 M33.853,20.422c-0.321,0.073-0.625,0.205-0.897,0.389c-0.789,0.475-2.295,1.354-8.509,2.166c-2.068,0.264-4.696,0.313-7.804,0.129
	c-0.115-0.347-0.319-0.657-0.592-0.9c-0.976-0.805-3.052-0.263-3.286-0.193c-0.175,0.048-0.277,0.229-0.229,0.404
	c0.049,0.176,0.23,0.277,0.405,0.229c0.542-0.149,2.086-0.432,2.692,0.068c0.429,0.354,0.613,1.248,0.573,1.945
	c-0.029,0.525-0.163,0.789-0.239,0.839c-0.321,0.211-1.579-0.241-2.731-1.397c-1.074-1.072-2.321-3.063-2.332-3.08
	c-0.089-0.158-0.289-0.215-0.448-0.127c-0.158,0.09-0.215,0.289-0.126,0.448c0.005,0.009,0.01,0.017,0.016,0.025
	c0.026,0.042,0.36,0.576,0.829,1.237c-0.705-0.084-1.392-0.177-2.058-0.264c-0.039-0.123-0.039-0.254,0-0.376
	c0.093-0.12,0.201-0.228,0.321-0.321c0.579-0.505,1.652-1.447,1.124-3.516c-0.411-1.602-1.21-2.202-1.811-2.423
	c-0.661-0.236-1.395-0.138-1.971,0.263c-0.164,0.077-0.235,0.273-0.158,0.438s0.273,0.235,0.437,0.158
	c0.037-0.017,0.069-0.041,0.097-0.069c0.401-0.274,0.909-0.339,1.366-0.174c0.647,0.239,1.131,0.921,1.399,1.971
	c0.429,1.676-0.35,2.367-0.918,2.857c-0.233,0.156-0.416,0.378-0.526,0.637c-0.043,0.148-0.063,0.303-0.058,0.457
	c-3.981-0.589-7.033-1.258-7.462-1.463c-0.293-0.355-0.375-0.841-0.213-1.273c0.121-0.227,1.137-0.831,2.007-1.255l0.053-0.026
	l0.042-0.042c0.323-0.325,0.7-0.592,1.113-0.789c0.671-0.287,1.397-0.697,1.429-0.713l0.053-0.037
	c0.021-0.019,2.079-1.781,3.434-2.518c2.788-1.596,5.988-2.329,9.193-2.105c2.258,0.137,5.899,1.224,9.42,2.273
	c2.072,0.618,4.083,1.218,5.788,1.621l0,0c1.579,0.374,2.894,0.576,3.757,0.463c0.568-0.095,1.121-0.266,1.645-0.508
	c0.36,0.315,1.289,1.234,1.385,2.386c0.057,0.793-0.16,1.581-0.616,2.232c-0.085-0.027-0.163-0.051-0.231-0.064
	C37.889,20.133,35.1,20.18,33.853,20.422z M47.301,23.316c-0.506,0.508-3.926-1.074-5.57-1.842
	c-0.637-0.295-1.192-0.551-1.647-0.742c0.483-0.75,0.708-1.637,0.64-2.525c-0.101-1.201-0.897-2.15-1.393-2.632
	c1.295-0.683,2.549-1.44,3.755-2.268c1.405-0.923,3.331-2.192,3.749-1.931c0,0,0.051,0.032,0.071,0.131
	c0.214,0.96-1.565,4.142-2.733,5.923l-0.135,0.203l0.156,0.188C46.045,20.043,47.758,22.846,47.301,23.316z"/>
<circle fill="#142374" cx="4.091" cy="18.627" r="0.505"/>
</svg>
