<?xml version="1.0" encoding="utf-8"?>
<!-- Generator: Adobe Illustrator 16.0.0, SVG Export Plug-In . SVG Version: 6.00 Build 0)  -->
<!DOCTYPE svg PUBLIC "-//W3C//DTD SVG 1.1//EN" "http://www.w3.org/Graphics/SVG/1.1/DTD/svg11.dtd">
<svg version="1.1" id="Deafult" xmlns="http://www.w3.org/2000/svg" xmlns:xlink="http://www.w3.org/1999/xlink" x="0px" y="0px"
	 width="47.972px" height="9.207px" viewBox="0.029 12.397 47.972 9.207" enable-background="new 0.029 12.397 47.972 9.207"
	 xml:space="preserve">
<title>DR_Logo_Footer</title>
<path fill="#142374" d="M6.986,21.604H2.737c-0.202,0-0.366-0.164-0.366-0.365v-8.476c0-0.202,0.164-0.366,0.366-0.366h4.249
	c2.542,0,4.604,2.061,4.604,4.604S9.528,21.604,6.986,21.604z M3.104,20.872h3.882c2.138,0,3.871-1.732,3.871-3.871
	s-1.733-3.871-3.871-3.871H3.104V20.872z"/>
<path fill="#142374" d="M6.929,19.2H6.741c-0.889,0-2.57-0.89-4.014-1.767c-1.167,0.728-2.107,1.394-2.119,1.401
	c-0.165,0.117-0.395,0.078-0.511-0.088c-0.044-0.062-0.068-0.136-0.068-0.211v-3.07c0-0.203,0.164-0.367,0.367-0.367
	c0.076,0,0.148,0.023,0.211,0.066c0.473,0.336,1.256,0.864,2.119,1.401c1.441-0.877,3.125-1.767,4.015-1.767h0.188
	c1.215,0,2.198,0.984,2.198,2.199C9.128,18.215,8.144,19.2,6.929,19.2z M3.436,17c1.309,0.778,2.656,1.465,3.305,1.465h0.188
	c0.81,0,1.466-0.655,1.466-1.465c0-0.811-0.657-1.467-1.466-1.467H6.741C6.422,15.534,5.574,15.729,3.436,17z M0.763,16.165v1.67
	C1.094,17.61,1.534,17.316,2.032,17C1.534,16.684,1.094,16.39,0.763,16.165z"/>
<path fill="#142374" d="M16.841,15.723v2.517c0,0.66-0.436,0.923-1.097,0.923h-0.866c-0.162,0-0.25-0.088-0.25-0.25v-3.863
	c0-0.161,0.087-0.25,0.25-0.25h0.866C16.405,14.801,16.841,15.063,16.841,15.723z M15.72,15.437h-0.367v3.091h0.367
	c0.236,0,0.397-0.088,0.397-0.398v-2.291C16.119,15.523,15.957,15.437,15.72,15.437z"/>
<path fill="#142374" d="M18.509,14.75h0.051c0.661,0,1.097,0.263,1.097,0.922v2.617c0,0.662-0.436,0.924-1.097,0.924h-0.051
	c-0.66,0-1.097-0.262-1.097-0.924v-2.617C17.414,15.006,17.85,14.75,18.509,14.75z M18.533,18.577c0.237,0,0.399-0.088,0.399-0.398
	v-2.393c0-0.312-0.163-0.398-0.399-0.398s-0.398,0.087-0.398,0.398v2.393c0.003,0.311,0.165,0.398,0.401,0.398H18.533z"/>
<path fill="#142374" d="M21.957,16.894c0.38,0.063,0.511,0.354,0.511,0.692v0.717c0,0.549-0.424,0.859-1.084,0.859h-0.878
	c-0.163,0-0.25-0.088-0.25-0.25v-3.863c0-0.161,0.087-0.25,0.25-0.25h0.891c0.661,0,1.046,0.313,1.046,0.861v0.549
	C22.442,16.519,22.305,16.851,21.957,16.894z M20.979,16.602h0.404c0.206,0,0.337-0.105,0.337-0.336v-0.504
	c0-0.229-0.132-0.336-0.337-0.336h-0.404V16.602z M21.408,17.211h-0.43v1.33h0.43c0.206,0,0.336-0.105,0.336-0.336v-0.656
	C21.744,17.318,21.614,17.211,21.408,17.211z"/>
<path fill="#142374" d="M25.078,19.163h-0.219c-0.144,0-0.236-0.063-0.28-0.205l-0.486-1.533h-0.366v1.488
	c0,0.162-0.087,0.25-0.249,0.25h-0.226c-0.162,0-0.249-0.088-0.249-0.25v-3.863c0-0.161,0.087-0.25,0.249-0.25h0.879
	c0.661,0,1.098,0.263,1.098,0.923V16.5c0,0.418-0.175,0.68-0.475,0.811l0.529,1.564C25.34,19.043,25.259,19.163,25.078,19.163z
	 M23.726,16.801h0.38c0.236,0,0.398-0.088,0.398-0.398v-0.566c0-0.313-0.163-0.398-0.398-0.398h-0.38V16.801z"/>
<path fill="#142374" d="M27.819,19.163H27.59c-0.147,0-0.241-0.074-0.268-0.229l-0.118-0.742h-0.8l-0.117,0.742
	c-0.024,0.155-0.119,0.229-0.269,0.229h-0.193c-0.168,0-0.255-0.093-0.224-0.269l0.716-3.87c0.023-0.148,0.124-0.225,0.273-0.225
	h0.449c0.149,0,0.249,0.074,0.275,0.225l0.729,3.87C28.074,19.068,27.987,19.163,27.819,19.163z M27.109,17.592l-0.305-1.938
	l-0.308,1.938H27.109z M26.611,14.167l0.199-0.405c0.049-0.116,0.166-0.188,0.292-0.181h0.225c0.212,0,0.28,0.137,0.145,0.305
	l-0.355,0.43c-0.072,0.096-0.186,0.148-0.305,0.143h-0.021C26.598,14.458,26.523,14.333,26.611,14.167z"/>
<path fill="#142374" d="M31.465,19.163h-0.221c-0.143,0-0.236-0.063-0.279-0.205l-0.484-1.533h-0.366v1.488
	c0,0.162-0.088,0.25-0.25,0.25H29.64c-0.163,0-0.249-0.088-0.249-0.25v-3.863c0-0.161,0.086-0.25,0.249-0.25h0.878
	c0.661,0,1.098,0.263,1.098,0.923V16.5c0,0.418-0.175,0.68-0.475,0.811l0.529,1.564C31.726,19.043,31.645,19.163,31.465,19.163z
	 M30.112,16.801h0.38c0.237,0,0.398-0.088,0.398-0.398v-0.566c0-0.313-0.162-0.398-0.398-0.398h-0.38V16.801z"/>
<path fill="#142374" d="M33.439,18.913c0,0.162-0.088,0.25-0.25,0.25h-0.226c-0.162,0-0.248-0.088-0.248-0.25v-1.302l-0.792-2.53
	c-0.056-0.168,0.024-0.281,0.206-0.281h0.242c0.15,0,0.237,0.07,0.275,0.219l0.436,1.807l0.438-1.807
	c0.038-0.148,0.125-0.219,0.273-0.219h0.229c0.181,0,0.262,0.113,0.206,0.281l-0.791,2.53L33.439,18.913L33.439,18.913z"/>
<path fill="#142374" d="M36.38,16.894c0.38,0.063,0.512,0.354,0.512,0.692v0.717c0,0.549-0.425,0.859-1.084,0.859h-0.879
	c-0.162,0-0.249-0.088-0.249-0.25v-3.863c0-0.161,0.087-0.25,0.249-0.25h0.892c0.661,0,1.047,0.313,1.047,0.861v0.549
	C36.866,16.519,36.729,16.851,36.38,16.894z M35.402,16.602h0.404c0.206,0,0.336-0.105,0.336-0.336v-0.504
	c0-0.229-0.132-0.336-0.336-0.336h-0.404V16.602z M35.832,17.211h-0.43v1.33h0.43c0.205,0,0.336-0.105,0.336-0.336v-0.656
	C36.168,17.318,36.037,17.211,35.832,17.211z"/>
<path fill="#142374" d="M39.396,19.163h-0.229c-0.147,0-0.242-0.074-0.268-0.229l-0.118-0.742H37.98l-0.118,0.742
	c-0.025,0.155-0.119,0.229-0.269,0.229H37.4c-0.169,0-0.256-0.093-0.226-0.269l0.717-3.87c0.023-0.148,0.125-0.225,0.273-0.225
	h0.449c0.149,0,0.249,0.074,0.275,0.225l0.729,3.87C39.65,19.068,39.564,19.163,39.396,19.163z M38.686,17.592l-0.307-1.938
	l-0.306,1.938H38.686z M38.187,14.167l0.2-0.405c0.049-0.116,0.166-0.188,0.292-0.181h0.225c0.212,0,0.28,0.137,0.144,0.305
	l-0.354,0.43c-0.072,0.096-0.187,0.148-0.305,0.143h-0.021C38.174,14.458,38.1,14.333,38.187,14.167L38.187,14.167z"/>
<path fill="#142374" d="M42.105,19.163h-0.218c-0.145,0-0.237-0.063-0.28-0.205l-0.486-1.533h-0.366v1.488
	c0,0.162-0.087,0.25-0.249,0.25h-0.225c-0.162,0-0.25-0.088-0.25-0.25v-3.863c0-0.161,0.088-0.25,0.25-0.25h0.877
	c0.661,0,1.098,0.263,1.098,0.923V16.5c0,0.418-0.175,0.68-0.475,0.811l0.53,1.564C42.367,19.043,42.285,19.163,42.105,19.163z
	 M40.754,16.801h0.38c0.237,0,0.399-0.088,0.399-0.398v-0.566c0-0.313-0.163-0.398-0.399-0.398h-0.38V16.801z"/>
<path fill="#142374" d="M43.252,19.163H43.09c-0.161,0-0.249-0.088-0.249-0.25v-3.863c0-0.161,0.088-0.25,0.249-0.25h0.263
	c0.131-0.008,0.25,0.08,0.28,0.207l0.848,2.492v-2.449c0-0.161,0.087-0.25,0.249-0.25h0.162c0.162,0,0.25,0.088,0.25,0.25v3.863
	c0,0.162-0.088,0.25-0.25,0.25h-0.224c-0.131,0.01-0.25-0.078-0.279-0.205l-0.887-2.629v2.584
	C43.502,19.075,43.414,19.163,43.252,19.163z"/>
<path fill="#142374" d="M47.77,19.163h-0.229c-0.149,0-0.243-0.074-0.269-0.229l-0.118-0.742h-0.798l-0.118,0.742
	c-0.024,0.155-0.118,0.229-0.268,0.229h-0.193c-0.168,0-0.256-0.093-0.226-0.269l0.718-3.87c0.023-0.148,0.124-0.225,0.273-0.225
	h0.448c0.15,0,0.25,0.074,0.275,0.225l0.729,3.87C48.025,19.068,47.938,19.163,47.77,19.163z M47.06,17.592l-0.307-1.938
	l-0.305,1.938H47.06z"/>
</svg>
