<svg id="Deafult" xmlns="http://www.w3.org/2000/svg" viewBox="0 0 1047.73 201"><defs><style>.cls-1{fill:#caac8f;}.cls-2{fill:#fff;}</style></defs><title>DR_Logo_Header</title><path class="cls-1" d="M152.48,201H59.75a8,8,0,0,1-8-8V8a8,8,0,0,1,8-8h92.73a100.5,100.5,0,0,1,0,201ZM67.75,185h84.73a84.5,84.5,0,0,0,0-169H67.75Z"/><path class="cls-1" d="M151.24,148.5h-4.09c-19.41,0-56.11-19.4-87.61-38.55-25.48,15.9-46,30.42-46.26,30.58A8,8,0,0,1,.65,134V67a8,8,0,0,1,12.62-6.53c10.32,7.31,27.41,18.86,46.24,30.59C91,71.91,127.73,52.5,147.15,52.5h4.09a48,48,0,0,1,0,96ZM75,100.51c28.58,17,58,32,72.13,32h4.09a32,32,0,0,0,0-64h-4.09C140.18,68.5,121.66,72.76,75,100.51ZM16.65,82.27v36.46c7.22-4.91,16.84-11.33,27.7-18.23C33.49,93.6,23.87,87.18,16.65,82.27Z"/><path class="cls-2" d="M367.6,72.63v54.94c0,14.42-9.52,20.13-23.94,20.13h-18.9c-3.54,0-5.44-1.9-5.44-5.44V57.94c0-3.54,1.9-5.44,5.44-5.44h18.9C358.08,52.5,367.6,58.21,367.6,72.63Zm-24.48-6.26h-8v67.46h8c5.17,0,8.7-1.9,8.7-8.7v-50C351.83,68.27,348.29,66.37,343.12,66.37Z"/><path class="cls-2" d="M404,51.41h1.09c14.42,0,23.94,5.71,23.94,20.13v57.12c0,14.42-9.52,20.13-23.94,20.13H404c-14.42,0-23.94-5.71-23.94-20.13V71.54C380.11,57,389.63,51.41,404,51.41Zm.54,83.5c5.17,0,8.7-1.9,8.7-8.7V74c0-6.8-3.54-8.7-8.7-8.7s-8.7,1.9-8.7,8.7v52.22C395.89,133,399.43,134.91,404.59,134.91Z"/><path class="cls-2" d="M479.26,98.19c8.3,1.36,11.15,7.75,11.15,15.1v15.64c0,12-9.25,18.77-23.67,18.77H447.57c-3.54,0-5.44-1.9-5.44-5.44V57.94c0-3.54,1.9-5.44,5.44-5.44H467c14.42,0,22.85,6.8,22.85,18.77v12C489.87,90,486.87,97.24,479.26,98.19ZM457.91,91.8h8.84c4.49,0,7.34-2.31,7.34-7.34v-11c0-5-2.86-7.34-7.34-7.34h-8.84Zm9.38,13.33h-9.38v29h9.38c4.49,0,7.34-2.31,7.34-7.34V112.47C474.63,107.44,471.78,105.13,467.29,105.13Z"/><path class="cls-2" d="M547.39,147.7h-4.76c-3.13,0-5.17-1.36-6.12-4.49l-10.61-33.46h-8v32.5c0,3.54-1.9,5.44-5.44,5.44h-4.9c-3.54,0-5.44-1.9-5.44-5.44V57.94c0-3.54,1.9-5.44,5.44-5.44h19.18c14.42,0,23.94,5.71,23.94,20.13v17c0,9.11-3.81,14.82-10.34,17.68l11.56,34.14C553.11,145.11,551.34,147.7,547.39,147.7ZM517.88,96.15h8.3c5.17,0,8.7-1.9,8.7-8.7V75.07c0-6.8-3.54-8.7-8.7-8.7h-8.3Z"/><path class="cls-2" d="M607.23,147.7h-5c-3.26,0-5.3-1.63-5.85-5l-2.58-16.18H576.36l-2.58,16.18c-.54,3.4-2.58,5-5.85,5h-4.22c-3.67,0-5.58-2-4.9-5.85l15.64-84.46c.54-3.26,2.72-4.9,6-4.9h9.79c3.26,0,5.44,1.63,6,4.9l15.91,84.46C612.81,145.66,610.9,147.7,607.23,147.7Zm-15.5-34.27-6.66-42.3-6.67,42.3Zm-10.88-74.8,4.35-8.84a6.52,6.52,0,0,1,6.39-3.94h4.9c4.62,0,6.12,3,3.13,6.66l-7.75,9.38A7.89,7.89,0,0,1,585.2,45h-.41C580.58,45,578.94,42.3,580.85,38.63Z"/><path class="cls-2" d="M686.79,147.7H682c-3.13,0-5.17-1.36-6.12-4.49L665.3,109.75h-8v32.5c0,3.54-1.9,5.44-5.44,5.44h-4.9c-3.54,0-5.44-1.9-5.44-5.44V57.94c0-3.54,1.9-5.44,5.44-5.44h19.18c14.42,0,23.94,5.71,23.94,20.13v17c0,9.11-3.81,14.82-10.34,17.68l11.56,34.14C692.5,145.11,690.73,147.7,686.79,147.7ZM657.28,96.15h8.3c5.17,0,8.7-1.9,8.7-8.7V75.07c0-6.8-3.54-8.7-8.7-8.7h-8.3Z"/><path class="cls-2" d="M729.9,142.26c0,3.54-1.9,5.44-5.44,5.44h-4.9c-3.54,0-5.44-1.9-5.44-5.44V113.83L696.85,58.62c-1.22-3.67.54-6.12,4.49-6.12h5.3c3.26,0,5.17,1.5,6,4.76l9.52,39.44,9.52-39.44c.82-3.26,2.72-4.76,6-4.76h5c3.94,0,5.71,2.45,4.49,6.12L729.9,113.83Z"/><path class="cls-2" d="M794.09,98.19c8.3,1.36,11.15,7.75,11.15,15.1v15.64c0,12-9.25,18.77-23.67,18.77H762.4c-3.54,0-5.44-1.9-5.44-5.44V57.94c0-3.54,1.9-5.44,5.44-5.44h19.45c14.42,0,22.85,6.8,22.85,18.77v12C804.7,90,801.71,97.24,794.09,98.19ZM772.74,91.8h8.84c4.49,0,7.34-2.31,7.34-7.34v-11c0-5-2.86-7.34-7.34-7.34h-8.84Zm9.38,13.33h-9.38v29h9.38c4.49,0,7.34-2.31,7.34-7.34V112.47C789.47,107.44,786.61,105.13,782.12,105.13Z"/><path class="cls-2" d="M859.91,147.7h-5c-3.26,0-5.3-1.63-5.85-5l-2.58-16.18H829l-2.58,16.18c-.54,3.4-2.58,5-5.85,5h-4.22c-3.67,0-5.58-2-4.9-5.85l15.64-84.46c.54-3.26,2.72-4.9,6-4.9h9.79c3.26,0,5.44,1.63,6,4.9l15.91,84.46C865.49,145.66,863.59,147.7,859.91,147.7Zm-15.5-34.27-6.66-42.3-6.67,42.3Zm-10.88-74.8,4.35-8.84a6.52,6.52,0,0,1,6.39-3.94h4.9c4.62,0,6.12,3,3.13,6.66l-7.75,9.38A7.89,7.89,0,0,1,837.88,45h-.41C833.26,45,831.63,42.3,833.53,38.63Z"/><path class="cls-2" d="M919.07,147.7h-4.76c-3.13,0-5.17-1.36-6.12-4.49l-10.61-33.46h-8v32.5c0,3.54-1.9,5.44-5.44,5.44h-4.9c-3.54,0-5.44-1.9-5.44-5.44V57.94c0-3.54,1.9-5.44,5.44-5.44H898.4c14.42,0,23.94,5.71,23.94,20.13v17c0,9.11-3.81,14.82-10.34,17.68l11.56,34.14C924.79,145.11,923,147.7,919.07,147.7ZM889.56,96.15h8.3c5.17,0,8.7-1.9,8.7-8.7V75.07c0-6.8-3.54-8.7-8.7-8.7h-8.3Z"/><path class="cls-2" d="M944.1,147.7h-3.54c-3.54,0-5.44-1.9-5.44-5.44V57.94c0-3.54,1.9-5.44,5.44-5.44h5.71A5.88,5.88,0,0,1,952.39,57l18.5,54.4V57.94c0-3.54,1.9-5.44,5.44-5.44h3.54c3.54,0,5.44,1.9,5.44,5.44v84.32c0,3.54-1.9,5.44-5.44,5.44H975a5.88,5.88,0,0,1-6.12-4.49L949.54,85.82v56.44C949.54,145.79,947.63,147.7,944.1,147.7Z"/><path class="cls-2" d="M1042.7,147.7h-5c-3.26,0-5.3-1.63-5.85-5l-2.58-16.18h-17.41l-2.58,16.18c-.54,3.4-2.58,5-5.85,5h-4.22c-3.67,0-5.58-2-4.9-5.85l15.64-84.46c.54-3.26,2.72-4.9,6-4.9h9.79c3.26,0,5.44,1.63,6,4.9l15.91,84.46C1048.27,145.66,1046.37,147.7,1042.7,147.7Zm-15.5-34.27-6.66-42.3-6.67,42.3Z"/></svg>