<?xml version="1.0" encoding="utf-8"?>
<!-- Generator: Adobe Illustrator 16.0.0, SVG Export Plug-In . SVG Version: 6.00 Build 0)  -->
<!DOCTYPE svg PUBLIC "-//W3C//DTD SVG 1.1//EN" "http://www.w3.org/Graphics/SVG/1.1/DTD/svg11.dtd">
<svg version="1.1" id="Vrstva_1" xmlns="http://www.w3.org/2000/svg" xmlns:xlink="http://www.w3.org/1999/xlink" x="0px" y="0px"
	 width="781.449px" height="90.732px" viewBox="30.017 -0.522 781.449 90.732"
	 enable-background="new 30.017 -0.522 781.449 90.732" xml:space="preserve">
<title>Menu</title>
<path fill="#CAAB8F" d="M147.296,90.194c32.252,0.178,63.765-9.654,90.194-28.14c26.429,18.486,57.942,28.318,90.194,28.14
	c33.428,0.21,66.045-10.283,93.081-29.944c27.034,19.662,59.653,30.155,93.081,29.944c32.252,0.178,63.764-9.654,90.193-28.14
	c26.43,18.486,57.941,28.318,90.193,28.14c41.453,0.51,81.322-15.907,110.398-45.458c9.963-11.258,8.912-28.46-2.346-38.423
	c-11.258-9.962-28.459-8.913-38.422,2.345c-18.609,17.856-43.48,27.701-69.27,27.419c-25.994,0.609-51.166-9.123-69.99-27.058l0,0
	l0,0l-5.773-4.33l-4.689-2.525h-5.051h-5.051h-5.051h-5.051l-4.33,2.525l-3.246,1.804l0,0l0,0
	c-18.957,19.369-45.059,30.07-72.156,29.583c-25.992,0.609-51.166-9.123-69.99-27.058C438.39,2.293,429.595-1.089,420.765,0
	c-8.769-1.178-17.551,2.065-23.451,8.659c-18.699,17.944-43.716,27.796-69.63,27.419c-25.993,0.609-51.166-9.123-69.99-27.058l0,0
	l0,0l-5.412-4.33l-5.772-2.525L242.541,0h-5.051h-5.051h-5.051l-4.69,5.051l-2.886,1.804l0,0l0,0
	c-19.105,19.329-45.348,29.904-72.516,29.223C121.303,36.687,96.13,26.955,77.306,9.02C67.343-2.139,50.222-3.108,39.063,6.854
	c-11.158,9.963-12.127,27.084-2.165,38.243C66.035,74.516,105.896,90.799,147.296,90.194z"/>
</svg>
