<?xml version="1.0" encoding="utf-8"?>
<!-- Generator: Adobe Illustrator 16.0.0, SVG Export Plug-In . SVG Version: 6.00 Build 0)  -->
<!DOCTYPE svg PUBLIC "-//W3C//DTD SVG 1.1//EN" "http://www.w3.org/Graphics/SVG/1.1/DTD/svg11.dtd">
<svg version="1.1" id="Vrstva_1" xmlns="http://www.w3.org/2000/svg" xmlns:xlink="http://www.w3.org/1999/xlink" x="0px" y="0px"
	 width="8.004px" height="2.954px" viewBox="0 22.474 8.004 2.954" enable-background="new 0 22.474 8.004 2.954"
	 xml:space="preserve">
<title>Shop_hover</title>
<path fill="#CAAB8F" d="M4.962,25.427c0.029-0.374,0.246-0.707,0.575-0.886c0.625-0.392,1.071-1.012,1.244-1.728
	c0.02-0.086-0.004-0.177-0.063-0.244c-0.057-0.066-0.142-0.101-0.229-0.096c-0.166,0-1.617,0.118-2.086,0.369
	c-0.151,0.076-0.289,0.177-0.406,0.299c-0.116-0.122-0.252-0.223-0.402-0.299c-0.469-0.251-1.919-0.369-2.086-0.369
	c-0.087-0.005-0.171,0.03-0.229,0.096c-0.057,0.066-0.079,0.155-0.059,0.24c0.169,0.715,0.612,1.337,1.233,1.731
	c0.334,0.176,0.555,0.51,0.587,0.886 M2.713,24.054c-0.376-0.23-0.665-0.578-0.823-0.99c0.493,0.029,0.98,0.118,1.451,0.266
	c0.347,0.181,0.37,0.369,0.37,0.465c0,0,0,0.022,0,0.03c0.001,0.148,0.121,0.269,0.269,0.273l0,0
	c0.145,0.004,0.266-0.109,0.27-0.254c0-0.006,0-0.012,0-0.019c0,0,0-0.022,0-0.03c0-0.088,0.033-0.284,0.369-0.465
	c0.472-0.147,0.958-0.237,1.451-0.266c-0.158,0.412-0.447,0.759-0.823,0.99c-0.498,0.282-0.817,0.801-0.842,1.373H3.6
	C3.565,24.846,3.229,24.325,2.713,24.054z"/>
</svg>
