<?xml version="1.0" encoding="utf-8"?>
<!-- Generator: Adobe Illustrator 16.0.0, SVG Export Plug-In . SVG Version: 6.00 Build 0)  -->
<!DOCTYPE svg PUBLIC "-//W3C//DTD SVG 1.1//EN" "http://www.w3.org/Graphics/SVG/1.1/DTD/svg11.dtd">
<svg version="1.1" xmlns="http://www.w3.org/2000/svg" xmlns:xlink="http://www.w3.org/1999/xlink" x="0px" y="0px"
	 width="782.163px" height="595.288px" viewBox="30.044 -0.003 782.163 595.288"
	 enable-background="new 30.044 -0.003 782.163 595.288" xml:space="preserve">
<g id="Vrstva_2">
	<rect x="71.581" y="36.143" fill="#142374" width="695" height="119"/>
	<polygon fill="#142374" points="708.581,178.143 134.581,178.143 160.581,494.143 217.581,557.143 341.581,566.143 
		559.581,566.143 665.581,553.143 684.581,446.143 	"/>
</g>
<g id="Vrstva_1">
	<title>Shop</title>
	<path fill="#CAAB8F" d="M784.786,0H57.103C42.159,0,30.044,12.114,30.044,27.058v144.311c0,14.944,12.115,27.058,27.059,27.058
		h47.983l33.19,297.64c0,54.795,44.419,99.215,99.214,99.215H604.4c53.842,0.406,98.031-42.498,99.213-96.328l33.554-300.527h47.981
		c14.943,0,27.06-12.114,27.06-27.058V27.058c0.002-14.944-12.111-27.059-27.058-27.061C785.029-0.002,784.907-0.001,784.786,0z
		 M84.161,144.311V54.116H757.73v90.194L84.161,144.311L84.161,144.311z M649.495,496.067c0,24.906-20.188,45.098-45.096,45.098
		h-48.344V478.03c0-14.945-12.115-27.061-27.06-27.061c-14.943,0-27.059,12.113-27.059,27.061v63.135h-54.117V478.03
		c0-14.945-12.113-27.061-27.057-27.061c-14.944,0-27.06,12.113-27.06,27.061v63.135H339.59V478.03
		c0-14.945-12.114-27.061-27.059-27.061c-14.943,0-27.058,12.113-27.058,27.061v63.135H237.49
		c-25.498-0.578-45.699-21.717-45.121-47.213c0.006-0.258,0.014-0.516,0.022-0.771l-32.831-294.753h522.765L649.495,496.067z"/>
</g>
</svg>
