<?xml version="1.0" encoding="utf-8"?>
<!-- Generator: Adobe Illustrator 16.0.0, SVG Export Plug-In . SVG Version: 6.00 Build 0)  -->
<!DOCTYPE svg PUBLIC "-//W3C//DTD SVG 1.1//EN" "http://www.w3.org/Graphics/SVG/1.1/DTD/svg11.dtd">
<svg version="1.1" id="Vrstva_1" xmlns="http://www.w3.org/2000/svg" xmlns:xlink="http://www.w3.org/1999/xlink" x="0px" y="0px"
	 width="62px" height="60px" viewBox="-7 -13 62 60" enable-background="new -7 -13 62 60" xml:space="preserve">
<title>Kade</title>
<g id="Vrstva_5">
	<path fill="#142374" d="M34.532,11.623c-0.602,0-1.002-0.5-1.002-1c0-0.2,0.1-0.401,0.2-0.601c0.802-1.101,3.004-4.803,2.303-6.705
		c-0.2-0.501,0.102-1.101,0.602-1.301c0.5-0.2,1.101,0.1,1.3,0.6c1.301,3.303-2.202,8.007-2.502,8.607
		C35.133,11.522,34.832,11.623,34.532,11.623z"/>
	<path fill="#FFFFFF" d="M4.309,25.133c0.9,0.801,3.102-3.201,3.102-3.201"/>
	<path fill="#CAAB8F" d="M4.609,26.233c-0.3,0-0.701-0.1-0.901-0.3c-0.4-0.4-0.4-1.001-0.1-1.4c0.3-0.301,0.601-0.4,1.001-0.301
		c0.8-0.8,1.501-1.7,2.001-2.702c0.3-0.5,0.9-0.7,1.301-0.4c0.5,0.3,0.7,0.902,0.4,1.303c0,0,0,0,0,0.1
		c-0.801,1.301-2.202,3.501-3.503,3.701H4.609z"/>
	<path fill="#FFFFFF" d="M7.411,21.932c0,0,0.2,5.504,3.803,6.004c3.603,0.5,6.306-4.403,6.306-4.403s0.8,5.104,5.104,5.504
		c4.304,0.401,6.306-5.004,6.306-5.004s1.601,4.504,5.604,4.203c4.003-0.3,4.203-6.504,4.203-6.504s3.503,4.202,4.703,3.001"/>
	<path fill="#CAAB8F" d="M23.023,30.138h-0.501c-2.402-0.3-4.503-1.902-5.304-4.204c-1.301,1.502-3.502,3.504-6.205,3.103
		c-4.303-0.7-4.604-6.704-4.604-7.004c0-0.603,0.4-1.002,1-1.002c0.601,0,1.001,0.399,1.001,1.002c0,0,0.3,4.701,3.002,5.102
		c2.303,0.401,4.604-2.701,5.304-3.901c0.3-0.5,0.901-0.7,1.401-0.4c0.3,0.101,0.5,0.4,0.5,0.7c0,0.2,0.801,4.304,4.203,4.604
		c3.402,0.3,5.305-4.303,5.305-4.303c0.2-0.501,0.802-0.801,1.302-0.601c0.3,0.1,0.5,0.3,0.601,0.601c0,0.199,1.3,3.803,4.603,3.501
		c3.303-0.301,3.303-5.502,3.303-5.502c0-0.602,0.501-1.002,1.001-1.002c0.3,0,0.6,0.1,0.7,0.4c1.2,1.401,2.702,2.702,3.303,2.802
		c0.4-0.3,1.102-0.3,1.402,0.2c0.3,0.4,0.3,1.001-0.101,1.301c-0.399,0.4-0.802,0.5-1.302,0.5c-1.101,0-2.303-1-3.303-2.001
		c-0.5,2.102-1.701,5.004-4.804,5.205c-2.302,0.101-4.503-1.002-5.703-3.004C27.927,27.936,26.024,30.138,23.023,30.138z"/>
	<path fill="#FFFFFF" d="M5.809,16.327c0,0-1.5,5.003,1.602,5.605c3.103,0.601,6.405-3.805,6.405-3.805s-0.301,5.006,3.803,5.506
		c4.103,0.5,5.203-4.806,5.203-4.806s1.701,5.306,5.807,5.306c4.101,0,4.401-5.806,4.401-5.806s2.803,4.005,6.205,3.404
		c3.403-0.602,2.503-5.505,2.503-5.505"/>
	<path fill="#CAAB8F" d="M28.527,25.133c-2.803,0-4.704-2.101-5.705-3.803c-1,1.803-2.702,3.603-5.403,3.303
		c-2.202-0.3-4.004-1.9-4.404-4.103c-1.4,1.302-3.603,2.902-5.805,2.402c-0.9-0.2-1.701-0.7-2.102-1.503
		c-1.201-2.002-0.3-5.103-0.2-5.404c0.2-0.5,0.7-0.8,1.201-0.7c0.5,0.2,0.8,0.7,0.7,1.201c-0.2,0.7-0.6,2.801,0,3.803
		c0.2,0.3,0.5,0.5,0.8,0.6c2.001,0.4,4.504-2.302,5.404-3.402c0.3-0.4,1.001-0.5,1.401-0.2c0.3,0.2,0.4,0.5,0.4,0.9
		c0,0.2-0.1,4.104,2.903,4.404c3.001,0.301,4.103-4.004,4.103-4.004c0.1-0.501,0.6-0.9,1.201-0.801c0.4,0.101,0.6,0.3,0.7,0.7
		c0,0,1.601,4.705,4.804,4.705c3.002,0,3.402-4.805,3.402-4.805c0-0.601,0.5-1,1.101-0.9c0.3,0,0.6,0.2,0.7,0.4
		c0,0,2.504,3.502,5.205,3.002c0.5-0.1,1-0.3,1.3-0.8c0.601-1.103,0.7-2.402,0.501-3.603c-0.101-0.601,0.3-1.101,0.8-1.201
		c0.602-0.1,1.103,0.3,1.202,0.8c0.1,0.301,0.5,3.202-0.8,5.104c-0.603,0.802-1.503,1.401-2.503,1.602c-2.4,0.4-4.503-1-5.806-2.202
		C32.93,22.732,31.43,25.133,28.527,25.133z"/>
	<path fill="#142374" d="M23.824,34.84C6.51,34.84-7,29.438-7,22.632c0-4.204,4.903-7.906,13.41-10.108l0.5,1.901
		c-7.306,1.901-11.909,5.102-11.909,8.207c0,4.903,11.609,10.207,28.822,10.207c17.212,0,28.823-5.304,28.823-10.207
		c0-3.104-4.604-6.305-12.11-8.207l0.5-1.901c8.607,2.301,13.611,6.003,13.611,10.208C54.647,29.438,41.136,34.84,23.824,34.84z"/>
	<path fill="#142374" d="M23.824,47.15c-10.708,0-20.016-2.301-23.318-5.705c-0.401-0.4-0.701-0.9-1.001-1.4l-4.904-13.712
		c-0.1-0.199-0.1-0.5,0-0.7c0.301-0.7,0.601-1.4,1.101-2c1.702-2.303,4.904-4.205,9.107-5.806l0.7,1.9
		c-3.903,1.402-6.705,3.104-8.206,5.105c-0.3,0.4-0.5,0.7-0.7,1.101l4.703,13.311c0.2,0.301,0.3,0.5,0.6,0.801
		c2.903,3.002,11.91,5.104,21.917,5.104c10.006,0,19.014-2.002,21.817-5.005c0.2-0.2,0.4-0.5,0.601-0.8l4.803-13.411
		c-0.199-0.4-0.399-0.7-0.7-1.101c-1.502-2.001-4.303-3.703-8.306-5.105l0.7-1.9c4.303,1.501,7.506,3.503,9.208,5.806
		c0.4,0.6,0.801,1.2,1.101,1.9c0.1,0.2,0.1,0.5,0,0.7l-4.905,13.812l0,0c-0.3,0.5-0.6,0.9-1,1.3
		C43.841,44.85,34.433,47.15,23.824,47.15z"/>
	<path fill="#142374" d="M23.824,30.038c-12.31,0-19.715-2.503-20.616-4.905l0,0c-0.7-1.9,4.603-22.717,11.609-32.325
		c2.903-4.003,6.004-5.905,9.007-5.805c3.302,0.2,6.505,2.602,9.606,7.206C40.436,4.617,45.041,23.433,44.44,25.033
		C43.641,27.535,36.135,30.038,23.824,30.038z M5.109,24.533c0.601,1,6.005,3.603,18.715,3.603c12.411,0,18.014-2.603,18.714-3.603
		c0-2.401-5.304-23.419-12.909-31.925c-2.002-2.202-4.005-3.403-5.805-3.503c-1.802-0.1-3.703,0.901-5.604,2.903
		C10.313,0.114,5.009,22.232,5.109,24.533z"/>
	<path fill="#142374" d="M29.729,7.82c-1.902,0-3.404-1.501-3.404-3.403s1.502-3.403,3.404-3.403c1.901,0,3.401,1.501,3.401,3.403
		S31.529,7.82,29.729,7.82L29.729,7.82z M29.729,3.117c-0.8,0-1.401,0.6-1.401,1.4c0,0.801,0.602,1.401,1.401,1.401
		c0.801,0,1.401-0.601,1.401-1.401C31.13,3.717,30.529,3.017,29.729,3.117C29.729,3.017,29.729,3.017,29.729,3.117L29.729,3.117z"/>
</g>
</svg>
