<?xml version="1.0" encoding="utf-8"?>
<!-- Generator: Adobe Illustrator 16.0.0, SVG Export Plug-In . SVG Version: 6.00 Build 0)  -->
<!DOCTYPE svg PUBLIC "-//W3C//DTD SVG 1.1//EN" "http://www.w3.org/Graphics/SVG/1.1/DTD/svg11.dtd">
<svg version="1.1" id="Vrstva_1" xmlns="http://www.w3.org/2000/svg" xmlns:xlink="http://www.w3.org/1999/xlink" x="0px" y="0px"
	 width="60px" height="59px" viewBox="-6 -12.5 60 59" enable-background="new -6 -12.5 60 59" xml:space="preserve">
<title>Prostor a krmivo</title>
<g id="Vrstva_4">
	<path fill="#142374" d="M7.589,31.848c-2.322,0.101-4.544-0.707-6.26-2.12c-0.405-0.404-0.405-1.01,0-1.414
		c0.404-0.403,1.01-0.403,1.414,0c1.313,1.313,3.837,1.718,5.756,1.514c1.313-0.2,2.625-0.504,3.837-1.109
		c0.505-0.202,1.11,0,1.313,0.506c0.202,0.504,0,1.109-0.505,1.312c-1.414,0.605-2.929,1.009-4.544,1.213
		C8.297,31.748,7.893,31.848,7.589,31.848z"/>
	<path fill="#142374" d="M42.328-10.465c2.827,0,5.051,2.221,6.769,6.766c1.717,4.545,2.524,10.604,2.524,17.572
		c0,17.369-5.051,30.8-9.293,30.8c-2.121,0-4.544-3.433-6.261-9.088c-2.02-7.069-3.029-14.34-2.929-21.712
		C33.038,1.754,35.865-10.465,42.328-10.465 M42.328-12.485c-17.269,0-12.723,59.077,0,59.077
		C55.052,46.592,59.596-12.485,42.328-12.485z"/>
	<path fill="#142374" d="M41.117,46.39h-0.202c-8.078-1.717-15.955-4.24-23.631-7.372C1.43,32.252-6.548,24.375-6.246,15.387
		c0.303-8.988,8.382-16.36,24.337-22.015c7.676-2.625,15.553-4.646,23.531-5.857c0.604-0.101,1.109,0.303,1.109,0.909
		c0.203,0.505-0.202,1.111-0.808,1.111c-0.404,0.101-45.747,6.462-46.15,25.953c-0.404,19.49,45.141,28.881,45.645,28.982
		c0.607,0.102,1.012,0.506,0.909,1.111C42.227,46.086,41.723,46.49,41.117,46.39L41.117,46.39L41.117,46.39z"/>
	<path fill="#CAAB8F" d="M44.147,9.53c1.212,0,1.815,2.424,1.917,3.131c0.91,4.747-0.705,10.603-1.917,11.309
		c-1.212-0.706-2.828-6.461-1.921-11.309C42.328,11.853,42.936,9.53,44.147,9.53 M44.147,7.511c-6.363,0-4.748,18.479,0,18.479
		C48.893,25.99,50.508,7.511,44.147,7.511z"/>
	<path fill="#142374" d="M13.144,18.114c-0.404,0-0.808-0.202-0.909-0.605c-0.605-1.112-1.717-1.919-2.929-2.021
		c-1.515-0.202-3.03,0.101-4.443,0.808c-0.506,0.202-1.112-0.101-1.313-0.606c-0.101-0.303,0-0.707,0.202-1.009
		c1.717-1.01,3.837-1.415,5.857-1.111c1.918,0.203,3.535,1.414,4.443,3.13c0.202,0.506,0,1.112-0.606,1.314
		C13.346,18.014,13.245,18.114,13.144,18.114L13.144,18.114z"/>
	<path fill="#142374" d="M32.534,44.269c-0.102,0-0.203,0-0.304,0c-1.515-0.403-2.929-3.433-4.242-9.088
		c-0.304-1.111-0.504-2.323-0.808-3.534c-0.1-0.607,0.304-1.111,0.808-1.212c0.606-0.102,1.111,0.302,1.214,0.808
		c0.2,1.212,0.504,2.321,0.706,3.435c1.413,5.653,2.626,7.473,2.929,7.673c0.505,0.204,0.808,0.708,0.705,1.212
		C33.442,43.965,33.038,44.269,32.534,44.269z"/>
	<path fill="#142374" d="M26.979,10.237L26.979,10.237c-0.606,0-1.01-0.505-1.01-1.111c0.1-1.514,0.304-2.929,0.403-4.342
		c0.404-3.434,2.119-14.643,5.857-15.45c0.504-0.102,1.111,0.202,1.212,0.707c0.1,0.505-0.202,1.111-0.708,1.212
		c-1.109,0.202-3.23,4.847-4.342,13.734c-0.202,1.414-0.304,2.828-0.404,4.241C27.889,9.833,27.484,10.237,26.979,10.237z"/>
	<path fill="#142374" d="M26.777,42.451h-0.202c-1.717-0.403-2.323-2.524-3.333-6.463c-0.101-0.504-0.303-1.111-0.404-1.717
		c-0.202-0.504,0.101-1.111,0.707-1.212c0.505-0.202,1.111,0.101,1.21,0.708c0,0,0,0,0,0.1c0.204,0.605,0.304,1.214,0.404,1.718
		c0.607,2.221,1.313,4.848,1.819,5.048c0.605,0.102,0.909,0.607,0.909,1.113C27.787,42.25,27.281,42.554,26.777,42.451
		L26.777,42.451z"/>
	<path fill="#142374" d="M22.637,3.572h-0.202c-0.506-0.101-0.91-0.606-0.809-1.111c1.111-6.665,2.02-10.805,4.747-11.613
		c0.504-0.202,1.111,0,1.312,0.505c0.204,0.505,0,1.111-0.504,1.313c-0.1,0.1-0.201,0.1-0.304,0.1
		c-1.615,0.405-2.524,5.05-3.332,9.998C23.545,3.167,23.142,3.572,22.637,3.572z"/>
</g>
</svg>
