<?xml version="1.0" encoding="utf-8"?>
<!-- Generator: Adobe Illustrator 16.0.0, SVG Export Plug-In . SVG Version: 6.00 Build 0)  -->
<!DOCTYPE svg PUBLIC "-//W3C//DTD SVG 1.1//EN" "http://www.w3.org/Graphics/SVG/1.1/DTD/svg11.dtd">
<svg version="1.1" id="Vrstva_1" xmlns="http://www.w3.org/2000/svg" xmlns:xlink="http://www.w3.org/1999/xlink" x="0px" y="0px"
	 width="68px" height="59px" viewBox="-10 -12.5 68 59" enable-background="new -10 -12.5 68 59" xml:space="preserve">
<title>Prevoz</title>
<g id="Vrstva_5">
	<path fill="#142374" d="M32.342,36.902H-8.62c-0.602,0-1.004-0.402-1.004-1.005v-47.085c0-0.602,0.402-1.004,1.004-1.004h40.962
		c0.603,0,1.004,0.402,1.004,1.004v47.085C33.346,36.5,32.843,36.902,32.342,36.902z M-7.616,34.894h38.954v-45.077H-7.616V34.894z"
		/>
	<circle fill="#FFFFFF" cx="5.737" cy="37.705" r="8.031"/>
	<path fill="#142374" d="M5.737,46.741c-5.021,0-9.037-4.015-9.037-9.036c0-5.021,4.016-9.035,9.037-9.035
		c5.02,0,9.035,4.015,9.035,9.035C14.772,42.727,10.656,46.741,5.737,46.741z M5.737,30.677c-3.916,0-7.028,3.113-7.028,7.028
		c0,3.914,3.112,7.029,7.028,7.029c3.915,0,7.027-3.115,7.027-7.029l0,0C12.764,33.79,9.552,30.677,5.737,30.677L5.737,30.677z"/>
	<circle fill="#FFFFFF" cx="5.737" cy="37.706" r="3.514"/>
	<path fill="#142374" d="M5.737,42.222c-2.51,0-4.519-2.007-4.519-4.517s2.009-4.518,4.519-4.518c2.509,0,4.518,2.008,4.518,4.518
		l0,0C10.255,40.215,8.146,42.222,5.737,42.222z M5.737,35.195c-1.406,0-2.51,1.104-2.51,2.51s1.104,2.51,2.51,2.51
		c1.405,0,2.509-1.104,2.509-2.51l0,0C8.247,36.4,7.142,35.195,5.737,35.195L5.737,35.195L5.737,35.195z"/>
	<circle fill="#FFFFFF" cx="44.892" cy="37.705" r="8.031"/>
	<path fill="#142374" d="M44.892,46.741c-5.021,0-9.036-4.015-9.036-9.036c0-5.021,4.016-9.035,9.036-9.035
		c5.021,0,9.036,4.015,9.036,9.035C53.928,42.727,49.812,46.741,44.892,46.741z M44.892,30.677c-3.917,0-7.028,3.113-7.028,7.028
		c0,3.914,3.111,7.029,7.028,7.029c3.915,0,7.028-3.115,7.028-7.029l0,0C51.92,33.79,48.707,30.677,44.892,30.677L44.892,30.677z"/>
	<path fill="#142374" d="M36.76,36.902h-4.52c-0.603,0-1.002-0.402-1.002-1.005s0.399-1.004,1.002-1.004h4.52
		c0.603,0,1.004,0.401,1.004,1.004S37.362,36.902,36.76,36.902L36.76,36.902z"/>
	<path fill="#142374" d="M56.941,36.902h-3.014c-0.603,0-1.005-0.402-1.005-1.005s0.402-1.004,1.005-1.004h2.008V13.71
		c0-2.61-2.109-4.819-4.821-4.819H32.342c-0.603,0-1.004-0.402-1.004-1.004c0-0.603,0.401-1.005,1.004-1.005h18.874
		c3.714,0,6.829,3.012,6.829,6.828v22.187C57.943,36.5,57.54,36.902,56.941,36.902z"/>
	<circle fill="#FFFFFF" cx="44.892" cy="37.706" r="3.514"/>
	<path fill="#142374" d="M44.892,42.222c-2.511,0-4.518-2.007-4.518-4.517s2.007-4.518,4.518-4.518c2.509,0,4.518,2.008,4.518,4.518
		l0,0C49.409,40.215,47.302,42.222,44.892,42.222z M44.892,35.195c-1.405,0-2.511,1.104-2.511,2.51s1.105,2.51,2.511,2.51
		s2.509-1.104,2.509-2.51l0,0C47.4,36.4,46.297,35.195,44.892,35.195L44.892,35.195L44.892,35.195z"/>
	<path fill="#CAAB8F" d="M11.66,21.841H4.633c-0.603,0-1.004-0.399-1.004-1.002V6.783c0-0.603,0.401-1.004,1.004-1.004h7.027
		c4.418,0,8.032,3.614,8.032,8.031C19.691,18.229,16.078,21.841,11.66,21.841z M5.636,19.834h6.023c3.313,0,6.024-2.71,6.024-6.023
		s-2.711-6.023-6.024-6.023H5.636V19.834z"/>
	<path fill="#CAAB8F" d="M11.56,17.826h-0.301c-1.506,0-4.217-1.405-6.626-2.911c-1.206,0.803-2.41,1.506-3.313,2.208
		c-0.401,0.302-1.104,0.201-1.406-0.2c-0.1-0.201-0.201-0.402-0.201-0.603V11.2c0-0.602,0.502-1.004,1.004-1.004
		c0.201,0,0.402,0.101,0.501,0.201C2.123,11,3.328,11.803,4.532,12.606c2.41-1.406,5.121-2.912,6.626-2.912h0.302
		c2.208,0,4.016,1.807,4.016,4.016S13.768,17.826,11.56,17.826L11.56,17.826z M6.541,13.811c2.007,1.104,3.814,2.008,4.718,2.008
		h0.301c1.104,0,2.007-0.904,2.007-2.008c0-1.104-0.903-2.008-2.007-2.008h-0.301C10.355,11.702,8.548,12.606,6.541,13.811
		L6.541,13.811z M1.721,13.208v1.305l1.004-0.603L1.721,13.208z"/>
	<path fill="#142374" d="M32.342-1.851H-8.62c-0.602,0-1.004-0.401-1.004-1.004s0.402-1.004,1.004-1.004h40.962
		c0.603,0,1.004,0.401,1.004,1.004S32.843-1.851,32.342-1.851z"/>
	<path fill="#142374" d="M56.135,20.839H32.342c-0.603,0-1.004-0.402-1.004-1.005s0.401-1.002,1.004-1.002h23.895
		c0.604,0,1.003,0.399,1.003,1.002C57.141,20.437,56.738,20.839,56.135,20.839z"/>
</g>
</svg>
