<?xml version="1.0" encoding="utf-8"?>
<!-- Generator: Adobe Illustrator 16.0.0, SVG Export Plug-In . SVG Version: 6.00 Build 0)  -->
<!DOCTYPE svg PUBLIC "-//W3C//DTD SVG 1.1//EN" "http://www.w3.org/Graphics/SVG/1.1/DTD/svg11.dtd">
<svg version="1.1" id="Vrstva_1" xmlns="http://www.w3.org/2000/svg" xmlns:xlink="http://www.w3.org/1999/xlink" x="0px" y="0px"
	 width="60px" height="60px" viewBox="-6 -13 60 60" enable-background="new -6 -13 60 60" xml:space="preserve">
<title>Jikry</title>
<g id="Vrstva_3">
	<path fill="#CAAB8F" d="M8.367-3.872c1.637,0,3.171,1.023,3.786,2.558c0.511,1.432-0.103,2.967-1.74,4.092
		c-0.716,0.613-1.637,1.023-2.66,1.023c-1.841-0.103-3.377-1.33-3.888-3.069C3.558-0.291,3.558-1.825,5.502-3.053
		C6.32-3.564,7.343-3.872,8.367-3.872 M8.367-5.917c-1.433,0-2.762,0.409-3.991,1.228C-1.148-1.211,2.535,5.848,7.753,5.848
		c1.433,0,2.762-0.511,3.888-1.432C16.96,0.425,13.482-5.917,8.367-5.917z"/>
	<path fill="#CAAB8F" d="M39.879,5.336c2.147,0,4.295,1.022,5.627,2.66c0.613,0.921,0.714,2.149,0.307,3.172
		c-0.513,1.33-1.842,2.148-3.273,2.046c-2.354-0.102-4.503-1.227-5.935-3.068c-0.613-0.819-0.717-1.944-0.307-2.865
		C37.012,5.95,38.445,5.132,39.879,5.336 M39.879,3.291c-2.354-0.205-4.502,1.125-5.423,3.171c-1.944,4.502,3.477,8.799,8.083,8.799
		c2.249,0.102,4.398-1.229,5.215-3.377C49.699,6.973,44.48,3.291,39.879,3.291z"/>
	<path fill="#CAAB8F" d="M12.254,26.104c0.307,0,0.717,0.104,1.024,0.307c1.023,0.614,0.92,1.229,0.818,1.432
		c-0.307,0.922-1.228,1.535-2.251,1.535c-0.307,0-0.717-0.102-1.023-0.203c-0.512-0.104-0.717-0.614-0.614-1.125c0,0,0,0,0-0.104
		C10.413,27.025,11.231,26.31,12.254,26.104 M12.254,24.059c-3.478,0-6.036,5.319-2.353,6.958c0.614,0.308,1.227,0.407,1.841,0.407
		c3.581,0,6.241-4.5,2.455-6.854C13.687,24.264,12.971,24.059,12.254,24.059z"/>
	<path fill="#CAAB8F" d="M32.512,34.598c0.307,0,0.716,0.101,0.919,0.306c0.614,0.409,0.819,1.126,0.614,1.74
		c0,0.204-0.307,0.817-0.919,0.817c-0.513,0-0.922-0.203-1.33-0.51c-0.614-0.411-1.229-1.025-1.024-1.434
		C31.182,35.005,31.897,34.598,32.512,34.598 M32.512,32.551c-3.068,0-5.629,3.479-1.74,6.139c0.717,0.511,1.535,0.817,2.456,0.817
		c3.07,0,4.195-4.705,1.33-6.444C33.943,32.756,33.228,32.551,32.512,32.551L32.512,32.551z"/>
</g>
<g id="Vrstva_2">
	<path fill="#142374" d="M8.367-5.508c3.683,0,7.979,3.376,9.412,7.366c1.125,2.558,0.307,5.525-1.841,7.264
		c-1.535,1.33-3.478,2.148-5.525,2.148c-3.376-0.102-6.445-2.148-7.878-5.217c-1.433-3.069-0.921-6.65,1.229-9.208
		C4.786-4.587,6.524-5.508,8.367-5.508 M8.367-7.554c-2.455,0-4.809,1.227-6.343,3.171C-4.32,3.495,2.228,13.316,10.31,13.316
		c2.558,0,4.911-0.921,6.855-2.66C25.043,4.21,16.449-7.554,8.367-7.554L8.367-7.554z"/>
	<path fill="#142374" d="M39.775-1.825c3.377,0,6.444,1.637,8.389,4.398c2.457,3.172,2.764,7.469,0.818,10.947
		c-2.148,4.296-6.547,7.367-10.742,7.367c-3.068,0-5.83-1.639-7.979-4.911c-2.559-3.99-2.863-8.083-1.023-11.561
		C31.488,0.63,35.479-1.723,39.775-1.825 M39.775-3.872c-9.208,0-18.314,9.924-11.151,20.871c2.659,4.093,6.139,5.831,9.616,5.831
		c9.311,0,18.621-12.173,11.56-21.586C47.551-2.03,43.765-3.872,39.775-3.872L39.775-3.872z"/>
	<path fill="#142374" d="M13.891,16.999v2.047c0.511,0,1.125,0.102,1.637,0.203c3.172,0.718,4.195,4.4,3.786,7.573
		c-0.307,2.863-1.943,5.83-4.911,5.83c-1.023,0-2.046-0.308-2.967-0.817c-3.58-1.739-5.217-4.399-4.501-7.266
		c0.819-3.171,3.683-5.422,6.957-5.523V16.999 M13.891,16.999c-8.287,0-14.016,11.562-3.274,16.678
		c1.228,0.614,2.558,1.021,3.888,1.021c8.287,0,9.618-15.449,1.535-17.393C15.323,17.204,14.607,17.103,13.891,16.999L13.891,16.999
		z"/>
	<path fill="#142374" d="M31.283,32.448L31.283,32.448c2.967,0,5.218,2.557,5.934,5.217c0.819,2.456-0.205,5.117-2.454,6.345
		c-0.921,0.614-2.046,0.922-3.172,0.922c-2.865-0.104-5.422-2.046-6.241-4.912c-0.818-2.455,0.205-5.116,2.455-6.343
		C28.726,32.959,29.953,32.448,31.283,32.448 M31.283,30.403c-1.738,0-3.375,0.613-4.705,1.635
		c-7.367,5.116-2.047,14.938,5.013,14.938c1.535,0,2.967-0.41,4.297-1.228C43.152,41.45,38.445,30.403,31.283,30.403L31.283,30.403z
		"/>
	<path fill="#142374" d="M21.564-10.931h0.41c1.227-0.102,2.25,0.921,2.25,2.046c0,0.205,0,0.306,0,0.512
		c-0.102,1.637-1.125,3.375-2.66,3.375c-0.103,0-0.307,0-0.409,0c-1.637-0.307-2.661-1.841-2.354-3.479
		c0-1.432,1.228-2.557,2.66-2.455H21.564 M21.564-12.977c-6.241,0-6.344,8.901-0.819,9.923c0.307,0.103,0.512,0.103,0.819,0.103
		c5.115,0,7.06-9.515,0.511-10.026H21.564L21.564-12.977z"/>
	<path fill="#142374" d="M0.08,16.386c1.841,0,2.046,1.227,2.046,2.25c0,2.866-1.944,3.174-2.762,3.174
		c-1.536,0.1-2.763-0.922-3.07-2.457c-0.103-0.613,0.103-1.228,0.512-1.637C-2.273,16.897-1.148,16.386,0.08,16.386 M0.08,14.339
		c-2.864,0-6.138,2.251-5.729,5.321c0.41,2.456,2.558,4.297,5.014,4.195c2.455,0,4.808-1.639,4.808-5.22
		c0.204-2.148-1.33-4.092-3.479-4.296C0.591,14.339,0.386,14.238,0.08,14.339L0.08,14.339z"/>
	<path fill="#142374" d="M44.892,28.97c1.124,0.102,2.147,0.614,2.763,1.637c0.51,0.817,0.51,1.738,0,2.558
		c-0.717,1.227-1.435,1.227-1.639,1.227c-1.022-0.1-1.943-0.714-2.353-1.533c-0.614-0.819-0.614-1.944-0.205-2.865
		C43.663,29.378,44.277,28.97,44.892,28.97 M44.993,26.924c-1.434,0-2.865,0.819-3.376,2.147c-1.639,3.581,1.432,7.367,4.502,7.367
		c1.535,0,2.863-0.921,3.374-2.354C51.542,30.3,48.061,26.924,44.993,26.924L44.993,26.924z"/>
	<path fill="#142374" d="M26.169,22.32c0.817,0,1.636,0.51,1.942,1.329c0.104,0.409-0.203,0.92-0.921,1.33
		c-0.308,0.204-0.715,0.409-1.125,0.409c-0.716,0-1.022-0.716-1.125-1.227c0-0.205-0.307-1.229,0.511-1.74
		C25.656,22.32,25.964,22.32,26.169,22.32 M26.169,20.274c-0.614,0-1.229,0.203-1.842,0.511c-2.967,1.738-1.536,6.65,1.637,6.65
		c0.819,0,1.637-0.307,2.251-0.717C32.204,24.162,29.34,20.274,26.169,20.274L26.169,20.274z"/>
	<path fill="#142374" d="M17.575,38.383L17.575,38.383c0.307,0,0.511,0,0.818,0.102c1.33,0.408,1.227,2.251,1.125,2.762
		c-0.205,1.536-1.228,3.071-2.558,3.071c-0.41,0-0.716-0.104-1.125-0.308c-1.125-0.41-1.739-1.535-1.534-2.764
		C14.709,39.712,16.04,38.586,17.575,38.383 M17.575,36.337c-4.604,0-8.083,7.059-2.661,9.615c0.614,0.308,1.331,0.515,1.944,0.515
		c4.604,0,6.65-8.392,2.148-9.927C18.597,36.438,18.086,36.337,17.575,36.337z"/>
	<path fill="#142374" d="M32.204-8.987c0.513,0,1.127,0.103,1.534,0.409c0.512,0.41,0.512,0.614,0.41,0.819
		c-0.614,1.331-1.944,2.251-3.377,2.354c-0.407,0-0.715-0.103-1.021-0.41c-0.41-0.409-0.614-1.023-0.307-1.534
		C29.953-8.271,31.078-8.987,32.204-8.987 M32.204-11.033c-3.58,0-6.649,3.99-3.888,6.752c0.614,0.613,1.535,1.023,2.455,0.92
		c3.479,0,7.572-4.501,4.093-6.855C34.045-10.727,33.126-11.033,32.204-11.033z"/>
	<path fill="#142374" d="M5.912,36.132L5.912,36.132c0.92,0,1.841,0.307,2.557,0.919c0.204,0.207,0.307,0.41,0.204,0.718
		c-0.204,1.124-1.227,1.842-2.353,1.738c-1.125,0.104-2.148-0.716-2.148-1.842c0-0.101,0-0.101,0-0.204
		c0-0.51,0.103-0.716,0.204-0.817C4.683,36.233,5.297,36.029,5.912,36.132 M5.912,33.983c-2.047,0-3.991,1.021-3.786,3.478
		c0.102,2.251,2.046,3.989,4.194,3.89c2.148,0.1,3.99-1.433,4.399-3.479C10.924,35.518,8.264,33.983,5.912,33.983L5.912,33.983z"/>
	<path fill="#142374" d="M22.076,13.214L22.076,13.214c0.614,0,1.023,0.717,1.228,1.33c0.205,0.511,0,1.023-0.512,1.33
		c-0.204,0.103-0.409,0.103-0.613,0.103c-0.818,0-1.433-0.512-1.637-1.228c0-0.205-0.205-0.717,0.818-1.228
		C21.564,13.316,21.769,13.214,22.076,13.214 M22.076,11.168c-0.614,0-1.227,0.205-1.739,0.512
		c-3.786,2.046-1.331,6.344,1.841,6.344c0.512,0,1.023-0.103,1.433-0.308C26.783,16.386,25.248,11.168,22.076,11.168L22.076,11.168z
		"/>
	<path fill="#142374" d="M-0.739,28.97c0.41,0.102,0.819,0.307,1.023,0.614c0.614,0.716,0.41,1.126,0.307,1.226
		c-0.307,0.614-1.023,1.025-1.739,1.025c-0.307,0-0.511-0.104-0.717-0.411c-0.307-0.511-0.409-1.227-0.102-1.738
		C-1.659,29.378-1.148,29.071-0.739,28.97 M-0.739,26.924c-2.455,0-4.399,3.273-2.66,5.832c0.511,0.817,1.433,1.228,2.353,1.228
		c2.558,0,5.218-2.866,2.865-5.729C1.308,27.436,0.284,27.025-0.739,26.924L-0.739,26.924z"/>
	<path fill="#142374" d="M-2.683,8.917c0.205,0,0.511,0.103,0.717,0.205c0.102,0.205,0.102,0.511,0,0.818
		c-0.103,0.307-0.307,1.024-0.818,1.024c-0.206,0-0.41-0.103-0.614-0.307C-3.604,10.35-3.706,9.94-3.604,9.633
		C-3.501,9.224-3.092,8.917-2.683,8.917 M-2.581,6.973c-1.433-0.102-2.66,0.921-2.967,2.354c-0.41,1.637,0.614,3.274,2.353,3.683
		c0.204,0,0.307,0.103,0.511,0.103c1.33-0.103,2.558-1.125,2.763-2.456c0.614-1.33-0.102-2.865-1.433-3.479
		C-1.762,6.973-2.273,6.872-2.581,6.973L-2.581,6.973z"/>
	<path fill="#142374" d="M24.838,0.937c0.41,0,0.818,0.206,1.024,0.614c0.102,0.205,0,0.41-0.411,0.818
		c-0.203,0.307-0.613,0.512-0.92,0.512c-0.204,0-0.409-0.205-0.512-0.409c-0.204-0.41-0.103-0.921,0.205-1.229
		C24.327,1.04,24.634,0.937,24.838,0.937 M24.838-1.109c-0.818,0-1.637,0.409-2.25,1.125c-1.126,1.227-1.023,3.069,0.103,4.092
		c0.511,0.511,1.125,0.716,1.841,0.818c0.92,0,1.739-0.511,2.352-1.125C29.237,1.449,27.09-1.109,24.838-1.109L24.838-1.109z"/>
	<path fill="#142374" d="M36.194,26.822c0.511,0,0.921,0.716,0.921,1.328c0,0.307,0,0.512-0.614,0.512h-0.203
		c-0.718,0-1.024-0.305-1.126-0.819c-0.103-0.51,0.307-0.919,0.716-1.021l0,0H36.194 M36.194,24.776c-0.203,0-0.307,0-0.511,0
		c-1.639,0.307-2.66,1.84-2.353,3.478c0.307,1.432,1.635,2.556,3.066,2.456h0.308C40.798,30.403,39.366,24.776,36.194,24.776
		L36.194,24.776z"/>
	<path fill="#142374" d="M50.518,22.934c0.41,0,0.817,0.204,1.024,0.614c0.1,0.204,0,0.511-0.41,0.817
		c-0.204,0.308-0.614,0.511-1.025,0.511c-0.203,0-0.407-0.203-0.511-0.407c-0.203-0.41-0.103-0.921,0.204-1.228
		C50.106,23.036,50.313,22.934,50.518,22.934 M50.518,20.888c-0.922,0-1.739,0.407-2.25,1.125c-1.127,1.229-1.023,3.07,0.101,4.195
		c0.514,0.511,1.125,0.716,1.842,0.817c0.922,0,1.843-0.409,2.457-1.125C55.02,23.444,52.87,20.888,50.518,20.888L50.518,20.888z"/>
</g>
</svg>
