<?xml version="1.0" encoding="utf-8"?>
<!-- Generator: Adobe Illustrator 16.0.0, SVG Export Plug-In . SVG Version: 6.00 Build 0)  -->
<!DOCTYPE svg PUBLIC "-//W3C//DTD SVG 1.1//EN" "http://www.w3.org/Graphics/SVG/1.1/DTD/svg11.dtd">
<svg version="1.1" id="Vrstva_1" xmlns="http://www.w3.org/2000/svg" xmlns:xlink="http://www.w3.org/1999/xlink" x="0px" y="0px"
	 width="48px" height="58px" viewBox="0 -12 48 58" enable-background="new 0 -12 48 58" xml:space="preserve">
<title>Strava</title>
<g id="Vrstva_5">
	<path fill="#142374" d="M3.426,45.841c-0.898,0-1.695-0.398-2.294-1.097c-0.698-0.797-0.897-1.995-0.499-2.992l2.293-5.983
		c-2.592-13.263-2.592-24.931,0-36.699L0.135-7.912c-0.299-0.997-0.1-2.194,0.598-3.091C1.431-11.801,2.627-12.2,3.625-11.9h0.1
		l5.186,1.994c2.293,0.598,4.587,0.898,6.881,0.898h16.354c2.294,0,4.588-0.3,6.781-0.798l5.188-1.995h0.1
		c1.097-0.299,2.193,0,2.99,0.798c0.798,0.797,0.997,2.094,0.498,3.091l-2.69,6.981c2.591,11.369,2.591,23.038,0,36.699l2.292,5.884
		c0.398,0.997,0.199,2.195-0.498,2.992c-0.698,0.798-1.694,1.196-2.791,0.997l-5.886-0.997l-1.196-0.1l-1.396-0.199
		c-1.696-0.299-3.391-0.498-5.186-0.498H17.586c-1.694,0-3.39,0.199-5.085,0.498l-1.496,0.199l-1.197,0.199l-5.883,0.997
		C3.725,45.841,3.625,45.841,3.426,45.841z M2.926-10.006c-0.199,0-0.498,0.1-0.698,0.299c-0.199,0.299-0.299,0.698-0.1,1.097
		l2.893,7.28c0,0.1,0,0.299-0.101,0.499c-2.493,11.768-2.493,23.337,0.101,36.5c0,0.2,0,0.4,0,0.6L2.627,42.45
		c-0.1,0.299-0.1,0.699,0.1,0.998c0.299,0.299,0.599,0.399,0.898,0.299l5.884-0.998l1.197-0.199l1.396-0.199
		c1.795-0.299,3.59-0.499,5.385-0.499h12.766c1.794,0,3.69,0.2,5.484,0.499l1.397,0.199l1.195,0.199l5.886,0.998
		c0.299,0.101,0.697-0.1,0.897-0.299c0.199-0.299,0.299-0.699,0.199-0.998l-2.396-6.182c0-0.199,0-0.399,0-0.6
		c2.595-13.661,2.595-25.231,0-36.5c0-0.199,0-0.399,0-0.598l2.894-7.28c0.199-0.299,0.1-0.699-0.199-0.998
		c-0.199-0.2-0.498-0.299-0.897-0.299l-5.188,1.995h-0.1c-2.393,0.599-4.886,0.898-7.38,0.998H15.792
		c-2.494,0-4.987-0.299-7.38-0.898h-0.1l-5.186-2.094H2.926z"/>
	<path fill="#CAAB8F" d="M25.065,22.207h-6.98c-0.599,0-0.998-0.399-0.998-0.999V7.247c0-0.599,0.398-0.998,0.998-0.998h6.98
		c4.39,0,7.978,3.59,7.978,7.979C33.043,18.615,29.455,22.207,25.065,22.207z M19.082,20.212h5.983c3.291,0,5.984-2.693,5.984-5.984
		c0-3.291-2.693-5.984-5.984-5.984h-5.983V20.212z"/>
	<path fill="#CAAB8F" d="M24.966,18.216h-0.299c-1.496,0-4.188-1.395-6.582-2.891c-1.197,0.698-2.293,1.496-3.291,2.194
		c-0.399,0.299-1.098,0.199-1.396-0.2c-0.1-0.199-0.199-0.398-0.199-0.598v-5.086c0-0.598,0.398-0.997,0.998-0.997
		c0.199,0,0.398,0.1,0.598,0.199c0.897,0.598,2.094,1.396,3.291,2.194c2.393-1.396,5.086-2.893,6.582-2.893h0.299
		c2.194,0,3.99,1.795,3.99,3.989C28.956,16.322,27.16,18.216,24.966,18.216L24.966,18.216z M19.98,14.228
		c1.995,1.097,3.79,1.995,4.687,1.995h0.299c1.097,0,1.995-0.898,1.995-1.995c0-1.097-0.898-1.995-1.995-1.995h-0.299
		C23.869,12.233,21.975,13.031,19.98,14.228L19.98,14.228z M15.193,13.629v1.296l0.998-0.598L15.193,13.629z"/>
	<path fill="#CAAB8F" d="M20.678,28.389h-5.086c-0.598,0-0.997-0.398-0.997-0.997c0-0.6,0.399-0.998,0.997-0.998h5.086
		c0.598,0,0.998,0.398,0.998,0.998C21.675,27.99,21.276,28.389,20.678,28.389L20.678,28.389z"/>
	<path fill="#CAAB8F" d="M32.645,28.389H23.57c-0.599,0-0.998-0.398-0.998-0.997c0-0.6,0.398-0.998,0.998-0.998h9.074
		c0.598,0,0.997,0.398,0.997,0.998C33.642,27.99,33.242,28.389,32.645,28.389L32.645,28.389z"/>
	<path fill="#142374" d="M42.816,39.757c-0.599,0-0.997-0.498-0.997-0.997c0-0.1,0-0.199,0.1-0.299l1.097-2.893
		c0.202-0.498,0.801-0.797,1.299-0.598s0.798,0.798,0.598,1.298l-1.096,2.891C43.617,39.458,43.218,39.757,42.816,39.757z"/>
</g>
</svg>
